<?xml version="1.0" encoding="UTF-8" standalone="no"?>
<!-- Created with Inkscape (http://www.inkscape.org/) -->

<svg
   xmlns:dc="http://purl.org/dc/elements/1.1/"
   xmlns:cc="http://creativecommons.org/ns#"
   xmlns:rdf="http://www.w3.org/1999/02/22-rdf-syntax-ns#"
   xmlns:svg="http://www.w3.org/2000/svg"
   xmlns="http://www.w3.org/2000/svg"
   xmlns:sodipodi="http://sodipodi.sourceforge.net/DTD/sodipodi-0.dtd"
   xmlns:inkscape="http://www.inkscape.org/namespaces/inkscape"
   width="288.375"
   height="286.09375"
   id="svg2"
   version="1.1"
   inkscape:version="0.48.4 r9939"
   sodipodi:docname="New document 1">
  <defs
     id="defs4" />
  <sodipodi:namedview
     id="base"
     pagecolor="#ffffff"
     bordercolor="#666666"
     borderopacity="1.0"
     inkscape:pageopacity="0.0"
     inkscape:pageshadow="2"
     inkscape:zoom="0.7"
     inkscape:cx="69.792058"
     inkscape:cy="-17.760889"
     inkscape:document-units="px"
     inkscape:current-layer="layer1"
     showgrid="false"
     fit-margin-top="0"
     fit-margin-left="0"
     fit-margin-right="0"
     fit-margin-bottom="0"
     inkscape:window-width="1024"
     inkscape:window-height="716"
     inkscape:window-x="-8"
     inkscape:window-y="22"
     inkscape:window-maximized="1" />
  <metadata
     id="metadata7">
    <rdf:RDF>
      <cc:Work
         rdf:about="">
        <dc:format>image/svg+xml</dc:format>
        <dc:type
           rdf:resource="http://purl.org/dc/dcmitype/StillImage" />
        <dc:title></dc:title>
      </cc:Work>
    </rdf:RDF>
  </metadata>
  <g
     inkscape:label="Layer 1"
     inkscape:groupmode="layer"
     id="layer1"
     transform="translate(-44.062644,-77.497278)">
    <path
       style="fill:#285228;fill-opacity:1;stroke:none"
       d="m 188.25014,77.497278 c -79.63112,0 -144.187496,64.025712 -144.187496,143.031252 0,79.00554 64.556376,143.0625 144.187496,143.0625 79.63112,0 144.1875,-64.05696 144.1875,-143.0625 0,-79.00554 -64.55638,-143.031252 -144.1875,-143.031252 z m 97.3125,86.625002 c 8.25176,-0.0537 7.68894,43.98735 4.875,45.46875 -28.15992,14.8248 -12.22775,-20.90243 -42.15625,-22.21875 -51.90265,0.0608 -31.8389,111.20549 30.03125,63.75 2.64338,-2.02752 8.41896,-2.34698 11.75,0.0312 4.35403,3.10856 3.40625,14 3.40625,14 2.05007,10.69185 -92.52611,58.2298 -103.1875,-38.53125 -3.51458,-31.89775 17.9514,-76.39515 80.875,-57.46875 0,0 5.49946,-4.97326 14.40625,-5.03125 z m -118,0.375 c 8.25176,-0.0537 7.68894,43.98735 4.875,45.46875 -28.15992,14.8248 -12.22775,-20.90243 -42.15625,-22.21875 -51.902646,0.0608 -31.838896,111.17424 30.03125,63.71875 2.64338,-2.02752 8.45021,-2.31573 11.78125,0.0625 4.35403,3.10856 3.375,14 3.375,14 2.05007,10.69185 -92.526106,58.2298 -103.187496,-38.53125 -3.51458,-31.89775 17.9514,-76.39515 80.874996,-57.46875 0,0 5.49946,-4.97326 14.40625,-5.03125 z"
       id="path3016"
       inkscape:connector-curvature="0" />
  </g>
</svg>
